<?xml version="1.0" encoding="UTF-8"?>
<svg id="Calque_1" xmlns="http://www.w3.org/2000/svg" xmlns:xlink="http://www.w3.org/1999/xlink" version="1.1" viewBox="0 0 120 31">
  <!-- Generator: Adobe Illustrator 29.8.2, SVG Export Plug-In . SVG Version: 2.1.1 Build 3)  -->
  <defs>
    <style>
      .st0 {
        fill: none;
      }

      .st1 {
        clip-path: url(#clippath);
      }
    </style>
    <clipPath id="clippath">
      <rect class="st0" width="120" height="30.6"/>
    </clipPath>
  </defs>
  <g class="st1">
    <path d="M51.1,30.6h-4.2v-1.4c-1.4.9-3.1,1.4-4.9,1.4-5,0-9.1-4.1-9.1-9.1h0c0-5,4.1-9.1,9.1-9.1.1,0,.3,0,.4,0,1.6,0,3.2.6,4.5,1.4v-1.4h0s4.2,0,4.2,0v18.1ZM91.6,23.1c0,1,.4,1.9,1.1,2.4.7.6,1.6.8,2.6.8s1.9-.3,2.6-.8c.7-.6,1.1-1.4,1.1-2.4v-10.7h4.5v10.7c0,2.4-.8,4.2-2.4,5.5-1.6,1.3-3.6,2-5.8,2s-4.2-.7-5.8-2c-1.6-1.3-2.4-3.2-2.4-5.5v-10.7h4.5v10.7ZM84.3,16.6h-4.8v14h-4.9v-14h-4.8v-4.2h14.6v4.2ZM66.7,16.6h-4.3c-2.7,0-4.9,2.2-4.9,4.9,0,2.7,2.2,4.9,4.9,4.9h4.3v4.2h-4.3c-5,0-9.1-4.1-9.1-9.1,0-5,4.1-9.1,9.1-9.1h4.3v4.2ZM119.1,16.8h-7.6c-.7,0-1.2.6-1.2,1.3,0,.7.5,1.2,1.2,1.3h2.9c3.1.1,5.5,2.5,5.5,5.6s-2.5,5.6-5.6,5.6h-7.7v-4.3h7.7c.7,0,1.2-.6,1.2-1.3,0-.7-.5-1.2-1.2-1.3h-2.9c-3.1-.1-5.5-2.5-5.5-5.6s2.5-5.6,5.6-5.6h7.6v4.3ZM24.1,10.2l-3,3-15.3-3.6,6.5,20.9-4.3-.9L0,4.6l24.1,5.6ZM30.6,7.4v4.7S12.8,30.2,12.8,30.2L6.6,10.4l4,.9,3.2,9.8,11.3-11.3L0,4.1,3.2,1l27.5,6.3ZM42.1,16.7c-2.7,0-4.9,2.2-4.9,4.9,0,2.7,2.2,4.9,4.9,4.9,2.7,0,4.9-2.2,4.9-4.9,0-2.7-2.2-4.9-4.9-4.9ZM33.9,1.7c.3,0,.6,0,.8.3,0,.1.2.2.3.2,0,0,.1,0,.2,0h5c.3,0,.5,0,.7.3h0c.2.2.3.4.3.7,0,.3,0,.5-.3.7-.2.2-.4.2-.6.2h-4.7c-.2,0-.4,0-.5.2-.1.1-.2.3-.2.5v4.4c0,.3,0,.5-.3.7-.2.2-.4.3-.6.3-.3,0-.5,0-.7-.3-.2-.2-.3-.4-.3-.7V3.9c0,0,0-.1,0-.1v-1.1c0-.3,0-.5.2-.7.2-.2.4-.3.7-.3ZM71.8,2.2c.2,0,.5,0,.7.3.2.2.3.4.3.7,0,.3,0,.5-.3.7h0c-.2.2-.4.2-.6.2h-6.3c-.3,0-.4.2-.4.5v1.2s0,1.8,0,1.8v1.6c0,.2,0,.5-.3.7-.2.2-.4.3-.7.3-.2,0-.5,0-.6-.3-.2-.2-.3-.4-.3-.7v-2.5c0-.4,0-2.7,0-2.8,0-1.1.6-1.7,1.7-1.7h6.8ZM53.3,0c.3,0,.5,0,.6.3.2.2.3.4.3.7v6.6c0,.2,0,.4.2.5.1.1.3.2.5.2h4.4c.2,0,.4,0,.5-.2.1-.1.2-.3.2-.5v-2.8c0-.2,0-.4-.2-.5-.1-.1-.3-.2-.5-.2h-3.5c-.3,0-.5,0-.7-.3-.2-.2-.3-.4-.3-.7,0-.3,0-.5.3-.7.2-.2.4-.2.6-.2h0s4.3,0,4.3,0c1.1,0,1.7.6,1.7,1.7v4.4c0,1.2-.6,1.8-1.8,1.8h-6.1c-1.2,0-1.8-.6-1.8-1.8V1c0-.3,0-.5.3-.7.2-.2.4-.3.7-.3ZM43.2,0c.3,0,.5,0,.6.3.2.2.3.4.3.7v1.3h6c.3,0,.5,0,.7.3.2.2.3.4.3.7s0,.5-.3.7c-.2.2-.4.2-.6.2h-6.1v3.5c0,.2,0,.4.2.5.1.1.3.2.5.2h5.3c.3,0,.5,0,.7.3h0c.2.2.3.4.3.6s0,.5-.3.7c-.2.2-.4.3-.6.3h-6.2c-1.1,0-1.7-.6-1.7-1.7V1c0-.3,0-.5.3-.7.2-.2.4-.3.7-.3ZM69.5,5.6c.3,0,.5,0,.7.3.2.2.3.4.3.7h0c0,.3-.1.5-.3.7-.2.2-.4.3-.7.3h-1.8c-.3,0-.5,0-.7-.3-.2-.2-.3-.4-.3-.7,0-.3.1-.5.3-.7.2-.2.4-.3.7-.3h1.8Z"/>
  </g>
</svg>